<svg id="Camada_1" data-name="Camada 1" xmlns="http://www.w3.org/2000/svg" viewBox="0 0 348.75 156.29"><defs><style>.cls-1{fill:#e84545;}</style></defs><title>logo_flow</title><path class="cls-1" d="M54.35,61.1a1.25,1.25,0,0,1,1.41,1.42V78.09a1.25,1.25,0,0,1-1.41,1.42H33.87v74a1.25,1.25,0,0,1-1.41,1.42H16.88a1.25,1.25,0,0,1-1.41-1.42V79.51h-14A1.25,1.25,0,0,1,0,78.09V62.52A1.25,1.25,0,0,1,1.42,61.1H15.47V34.31a32.43,32.43,0,0,1,3.92-16,25.69,25.69,0,0,1,11-10.57,24.65,24.65,0,0,1,14.27-2.5A30.77,30.77,0,0,1,59,10.67a1.24,1.24,0,0,1,.33,2.07L50.1,25.16a1.27,1.27,0,0,1-2,.33q-5.34-3.37-9.47-1.31-4.8,2.4-4.8,10.13V61.1Z"/><path class="cls-1" d="M71.1,156.29a1.25,1.25,0,0,1-1.42-1.41V1.42A1.26,1.26,0,0,1,71.1,0H87a1.26,1.26,0,0,1,1.42,1.42V154.88A1.25,1.25,0,0,1,87,156.29Z"/><path class="cls-1" d="M151.24,58.05a48.89,48.89,0,0,1,49,48.91,48.89,48.89,0,0,1-49,49,48.91,48.91,0,0,1-49-49,48.91,48.91,0,0,1,49-48.91Zm0,79.62A30.87,30.87,0,0,0,182,107a30.87,30.87,0,0,0-30.71-30.61A30.87,30.87,0,0,0,120.64,107a30.87,30.87,0,0,0,30.6,30.71Z"/><path class="cls-1" d="M329.08,58.38a1.27,1.27,0,0,1,1.3-.87h16.89a1.45,1.45,0,0,1,1.19.54,1.43,1.43,0,0,1,.22,1.31L315,155a1.47,1.47,0,0,1-1.42,1H302.07a1.36,1.36,0,0,1-1.42-1L279.09,90.18,257.52,155a1.36,1.36,0,0,1-1.42,1H244.56a1.36,1.36,0,0,1-1.42-1L209.49,59.36a1.43,1.43,0,0,1,.22-1.31,1.45,1.45,0,0,1,1.19-.54h16.78a1.34,1.34,0,0,1,1.41.87l21.57,62.19,20.15-62.08a1.34,1.34,0,0,1,1.41-1H286a1.34,1.34,0,0,1,1.41,1l20.15,62.08Z"/></svg>